<svg width="100pt" height="100pt" viewBox="0 0 100 100" xmlns="http://www.w3.org/2000/svg"><path d="M15.289 41.625a1.954 1.954 0 0 1 .555-2.156l32.883-28.352a1.946 1.946 0 0 1 2.547 0l32.883 28.352c.617.535.836 1.394.55 2.156a1.947 1.947 0 0 1-1.824 1.273H17.117a1.95 1.95 0 0 1-1.828-1.273zm78.227 27.43v20.312H89.61V85.75h-7.258v3.617h-3.906V85.75h-7.258v3.617h-3.906V85.75h-7.258v3.617h-3.906V69.055h3.906v3.602h7.258v-3.602h3.906v3.602h7.258v-3.602h3.906v3.602h7.258v-3.602zM67.282 81.836v-5.273h-7.258v5.257zm11.164 0v-5.273h-7.258v5.257zm11.164 0v-5.273h-7.258v5.257zM39.977 69.055h3.906v20.312h-3.906V85.75h-7.258v3.617h-3.906V85.75h-7.258v3.617H17.65V85.75h-7.258v3.617H6.485V69.055h3.906v3.602h7.258v-3.602h3.906v3.602h7.258v-3.602h3.906v3.602h7.258zM17.649 81.836v-5.273h-7.258v5.257zm11.164 0v-5.273h-7.258v5.257zm11.164 0v-5.273h-7.258v5.257zm26.961-19c0 .52.207 1.016.57 1.383.368.363.864.57 1.383.57h9.688c.52 0 1.015-.207 1.382-.57.364-.367.57-.863.57-1.383V46.805H19.47v16.031c0 .52.207 1.016.57 1.383.367.363.863.57 1.383.57h9.687c.52 0 1.016-.207 1.383-.57.363-.367.57-.863.57-1.383v-4.375a33.934 33.934 0 0 1 33.875 0z"/></svg>